<?xml version="1.0" encoding="UTF-8" standalone="no"?>
<!-- Created with Inkscape (http://www.inkscape.org/) -->

<svg
   xmlns:dc="http://purl.org/dc/elements/1.1/"
   xmlns:cc="http://creativecommons.org/ns#"
   xmlns:rdf="http://www.w3.org/1999/02/22-rdf-syntax-ns#"
   xmlns:svg="http://www.w3.org/2000/svg"
   xmlns="http://www.w3.org/2000/svg"
   xmlns:sodipodi="http://sodipodi.sourceforge.net/DTD/sodipodi-0.dtd"
   xmlns:inkscape="http://www.inkscape.org/namespaces/inkscape"
   sodipodi:docname="contact US.svg"
   inkscape:version="0.92.2 (5c3e80d, 2017-08-06)"
   id="svg8"
   version="1.1"
   viewBox="0 0 210 297"
   height="297mm"
   width="210mm">
  <sodipodi:namedview
     inkscape:window-maximized="1"
     inkscape:window-y="-9"
     inkscape:window-x="-9"
     inkscape:window-height="1001"
     inkscape:window-width="1920"
     showgrid="false"
     inkscape:current-layer="layer1"
     inkscape:document-units="mm"
     inkscape:cy="365.44866"
     inkscape:cx="449.39222"
     inkscape:zoom="0.90509668"
     inkscape:pageshadow="2"
     inkscape:pageopacity="0.0"
     borderopacity="1.0"
     bordercolor="#666666"
     pagecolor="#ffffff"
     id="base" />
  <defs
     id="defs2">
    <clipPath
       clipPathUnits="userSpaceOnUse"
       id="clipPath1241">
      <rect
         style="opacity:1;fill:#6f8fab;fill-opacity:1;stroke:none;stroke-width:1;stroke-linecap:round;stroke-linejoin:round;stroke-miterlimit:4;stroke-dasharray:1.00000001, 6.00000009;stroke-dashoffset:0;stroke-opacity:1;paint-order:stroke fill markers"
         id="rect1243"
         width="429.50143"
         height="161.24089"
         x="-253.10423"
         y="-206.46896"
         ry="2.4054258" />
    </clipPath>
    <clipPath
       clipPathUnits="userSpaceOnUse"
       id="clipPath1351">
      <rect
         style="opacity:1;fill:#08111a;fill-opacity:1;stroke:none;stroke-width:1;stroke-linecap:round;stroke-linejoin:round;stroke-miterlimit:4;stroke-dasharray:1.00000001, 6.00000009;stroke-dashoffset:0;stroke-opacity:1;paint-order:stroke fill markers"
         id="rect1353"
         width="252.85429"
         height="54.280933"
         x="-739.42773"
         y="-252.16988"
         ry="0.71461123" />
    </clipPath>
  </defs>
  <metadata
     id="metadata5">
    <rdf:RDF>
      <cc:Work
         rdf:about="">
        <dc:format>image/svg+xml</dc:format>
        <dc:type
           rdf:resource="http://purl.org/dc/dcmitype/StillImage" />
        <dc:title />
      </cc:Work>
    </rdf:RDF>
  </metadata>
  <g
     inkscape:label="Layer 1"
     inkscape:groupmode="layer"
     id="layer1">
    <path
       style="fill:none;stroke:#f9f9fa;stroke-width:1.56500006;stroke-linecap:round;stroke-linejoin:miter;stroke-miterlimit:4;stroke-dasharray:none;stroke-opacity:1"
       d="m 103.86304,230.71184 3.1238,3.12373"
       id="path1220"
       inkscape:connector-curvature="0" />
    <path
       inkscape:connector-curvature="0"
       id="path1222"
       d="m 110.11054,230.71184 -3.1237,3.12373"
       style="fill:none;stroke:#f9f9fa;stroke-width:1.56500006;stroke-linecap:round;stroke-linejoin:miter;stroke-miterlimit:4;stroke-dasharray:none;stroke-opacity:1" />
    <g
       id="g9445"
       style="stroke:#f9f9fa;stroke-width:0.1;stroke-miterlimit:4;stroke-dasharray:none"
       transform="translate(132.79504,-237.10678)">
      <path
         id="path9401"
         style="fill:none;stroke:#f9f9fa;stroke-width:0.1;stroke-linecap:butt;stroke-linejoin:miter;stroke-miterlimit:4;stroke-dasharray:none;stroke-opacity:1"
         d="m -25.25697,465.11252 c 1.176328,-4.75992 -1.052192,-10.28538 -3.750543,-15.83718 -0.767532,-1.57919 -1.573077,-3.1605 -2.34909,-4.72694 -4.390394,-8.86232 -7.835463,-17.24837 1.89712,-22.07749 1.7732,-0.87982 3.983818,-1.64158 6.705831,-2.26664 7.192983,-1.65173 14.3505487,10.04524 10.445461,13.30979 -0.380307,0.31793 -0.865538,0.55588 -1.465876,0.69374 -12.447159,2.85825 -19.851707,-11.88341 -17.895647,-24.47023 0.59128,-3.80476 2.037875,-7.41263 4.459052,-10.27796 1.118593,-1.3238 2.5166,-2.30787 4.056431,-2.97587 7.969628,-3.45737 19.7383563,1.55174 16.230473,11.74617"
         inkscape:connector-curvature="0" />
      <path
         id="path9403"
         style="fill:none;stroke:#f9f9fa;stroke-width:0.1;stroke-linecap:butt;stroke-linejoin:miter;stroke-miterlimit:4;stroke-dasharray:none;stroke-opacity:1"
         d="m -25.25697,465.11252 c 1.193263,-4.99093 -1.181827,-10.41582 -3.919926,-16.0431 -0.790103,-1.62318 -1.466564,-3.2277 -2.222476,-4.80526 -4.276673,-9.18699 -6.676191,-16.39976 2.076435,-21.34641 1.704813,-0.86452 3.771703,-1.69398 6.31332,-2.41023 6.751655,-1.85816 13.342678,9.17915 9.538741,12.64466 -0.370457,0.3371 -0.839933,0.59139 -1.418658,0.74379 -12.017914,3.10344 -18.230325,-12.2976 -16.108706,-24.12595 0.656167,-3.5458 1.811075,-7.17501 3.981625,-10.07428 1.003426,-1.33912 2.292978,-2.34592 3.773304,-3.01624 7.495177,-3.63583 18.5284917,1.3486 14.8962489,10.91578"
         inkscape:connector-curvature="0" />
      <path
         id="path9405"
         style="fill:none;stroke:#f9f9fa;stroke-width:0.1;stroke-linecap:butt;stroke-linejoin:miter;stroke-miterlimit:4;stroke-dasharray:none;stroke-opacity:1"
         d="m -25.25697,465.11252 c 1.215234,-5.29064 -1.350016,-10.58505 -4.139683,-16.31026 -0.819386,-1.68027 -1.328374,-3.31489 -2.058208,-4.90688 -4.129132,-9.60822 -5.172153,-15.29876 2.309078,-20.3979 1.616089,-0.84467 3.496506,-1.76196 5.804078,-2.59653 6.179077,-2.12597 12.03507,8.0555 8.362365,11.78173 -0.357676,0.36197 -0.806714,0.63745 -1.357396,0.80873 -11.461015,3.42154 -16.126751,-12.83499 -13.790336,-23.67929 0.740352,-3.20983 1.516825,-6.86673 3.362213,-9.81004 0.854008,-1.35899 2.002852,-2.39527 3.405976,-3.0686 6.879625,-3.86738 16.9588172,1.08504 13.165231,9.83844"
         inkscape:connector-curvature="0" />
      <path
         id="path9407"
         style="fill:none;stroke:#f9f9fa;stroke-width:0.1;stroke-linecap:butt;stroke-linejoin:miter;stroke-miterlimit:4;stroke-dasharray:none;stroke-opacity:1"
         d="m -25.25697,465.11252 c 1.239617,-5.62325 -1.536665,-10.77286 -4.38356,-16.60674 -0.851884,-1.74361 -1.175017,-3.41165 -1.87591,-5.01965 -3.965397,-10.07568 -3.503037,-14.07692 2.567255,-19.34529 1.517627,-0.82264 3.191104,-1.8374 5.238943,-2.80328 5.543654,-2.42317 10.583941,6.80851 7.056873,10.82409 -0.343494,0.38956 -0.769849,0.68857 -1.289412,0.8808 -10.842991,3.77456 -13.792292,-13.43136 -11.217506,-23.1836 0.833777,-2.83699 1.190279,-6.52462 2.674817,-9.51679 0.68819,-1.38106 1.680881,-2.45006 2.99833,-3.12673 6.196512,-4.12433 15.2168588,0.79255 11.24422,8.64285"
         inkscape:connector-curvature="0" />
      <path
         id="path9409"
         style="fill:none;stroke:#f9f9fa;stroke-width:0.1;stroke-linecap:butt;stroke-linejoin:miter;stroke-miterlimit:4;stroke-dasharray:none;stroke-opacity:1"
         d="m -25.25697,465.11252 c 1.265711,-5.97919 -1.736412,-10.97384 -4.644553,-16.92403 -0.886662,-1.81141 -1.010896,-3.51519 -1.680817,-5.14033 -3.790172,-10.57595 -1.716784,-12.76934 2.84355,-18.21882 1.412255,-0.79905 2.86427,-1.91812 4.634147,-3.02452 4.863639,-2.74125 9.030975,5.47401 5.659763,9.79923 -0.328315,0.4191 -0.730396,0.74328 -1.216655,0.95793 -10.181596,4.15235 -11.294005,-14.06957 -8.464119,-22.65313 0.933758,-2.43798 0.840816,-6.15849 1.939179,-9.20296 0.510736,-1.40467 1.336316,-2.50868 2.562077,-3.18892 5.465459,-4.39932 13.352652,0.47954 9.188396,7.36335"
         inkscape:connector-curvature="0" />
      <path
         id="path9411"
         style="fill:none;stroke:#f9f9fa;stroke-width:0.1;stroke-linecap:butt;stroke-linejoin:miter;stroke-miterlimit:4;stroke-dasharray:none;stroke-opacity:1"
         d="m -25.25697,465.11252 c 1.293156,-6.35357 -1.946502,-11.18524 -4.919058,-17.25774 -0.923241,-1.88272 -0.838279,-3.62411 -1.475625,-5.26727 -3.605873,-11.10212 0.161953,-11.39406 3.134152,-17.03401 1.301427,-0.77425 2.520513,-2.00304 3.998037,-3.25724 4.148415,-3.07577 7.397603,4.07042 4.190317,8.72132 -0.312351,0.45016 -0.688901,0.80083 -1.140132,1.03905 -9.485956,4.54971 -8.666368,-14.74083 -5.568173,-22.09519 1.038915,-2.0183 0.473259,-5.77341 1.165454,-8.87288 0.324093,-1.4295 0.97391,-2.57035 2.103236,-3.25434 4.696554,-4.68854 11.391925,0.15032 7.026129,6.01761"
         inkscape:connector-curvature="0" />
      <path
         id="path9413"
         style="fill:none;stroke:#f9f9fa;stroke-width:0.1;stroke-linecap:butt;stroke-linejoin:miter;stroke-miterlimit:4;stroke-dasharray:none;stroke-opacity:1"
         d="m -25.25697,465.11252 c 1.321728,-6.74331 -2.165219,-11.40531 -5.204835,-17.60516 -0.961322,-1.95695 -0.658573,-3.73749 -1.262007,-5.39942 -3.414007,-11.64989 2.117839,-9.96229 3.436686,-15.80055 1.186048,-0.74843 2.16264,-2.09144 3.335807,-3.4995 3.403821,-3.42404 5.697157,2.60919 2.660529,7.59914 -0.295731,0.4825 -0.645701,0.86073 -1.060466,1.1235 -8.76175,4.96338 -5.930829,-15.43966 -2.553308,-21.51433 1.148391,-1.58141 0.09061,-5.37252 0.359956,-8.52926 0.129786,-1.45535 0.596622,-2.63454 1.625553,-3.32244 3.896076,-4.98964 9.350683,-0.19242 4.775072,4.6166"
         inkscape:connector-curvature="0" />
      <path
         id="path9415"
         style="fill:none;stroke:#f9f9fa;stroke-width:0.1;stroke-linecap:butt;stroke-linejoin:miter;stroke-miterlimit:4;stroke-dasharray:none;stroke-opacity:1"
         d="m -25.25697,465.11252 c 1.351273,-7.14633 -2.39138,-11.63287 -5.500341,-17.9644 -1.000699,-2.03371 -0.47275,-3.85474 -1.041116,-5.53606 -3.21561,-12.21632 4.140304,-8.4818 3.749519,-14.52512 1.066741,-0.72173 1.792585,-2.18284 2.651033,-3.75 2.633881,-3.78418 3.938829,1.09821 1.078667,6.43876 -0.278545,0.51594 -0.601031,0.92267 -0.978088,1.21082 -8.012893,5.39113 -3.102171,-16.16227 0.564184,-20.91371 1.261593,-1.12962 -0.305066,-4.95797 -0.472962,-8.17392 -0.07113,-1.48208 0.206492,-2.70092 1.13161,-3.39286 3.06835,-5.301 7.239956,-0.54683 2.447388,3.1679"
         inkscape:connector-curvature="0" />
      <path
         id="path9417"
         style="fill:none;stroke:#f9f9fa;stroke-width:0.1;stroke-linecap:butt;stroke-linejoin:miter;stroke-miterlimit:4;stroke-dasharray:none;stroke-opacity:1"
         d="m -25.25697,465.11252 c 1.381677,-7.56106 -2.624118,-11.86705 -5.804438,-18.33409 -1.041221,-2.1127 -0.281524,-3.97539 -0.813804,-5.67668 -3.011444,-12.79921 6.221571,-6.95826 4.071448,-13.21259 0.943965,-0.69425 1.411771,-2.27691 1.94635,-4.0078 1.841556,-4.15477 2.129378,-0.45669 -0.549187,5.24465 -0.260859,0.55035 -0.555062,0.98642 -0.893315,1.30068 -7.242262,5.83133 -0.191273,-16.90589 3.772315,-20.29562 1.378086,-0.66471 -0.712246,-4.53138 -1.330096,-7.80826 -0.277897,-1.50959 -0.194981,-2.76923 0.623306,-3.46533 2.216557,-5.62141 5.067861,-0.91154 0.05203,1.67709"
         inkscape:connector-curvature="0" />
      <path
         id="path9419"
         style="fill:none;stroke:#f9f9fa;stroke-width:0.1;stroke-linecap:butt;stroke-linejoin:miter;stroke-miterlimit:4;stroke-dasharray:none;stroke-opacity:1"
         d="m -25.25697,465.11252 c 1.412852,-7.98632 -2.862761,-12.10718 -6.116252,-18.71316 -1.082771,-2.1937 -0.08544,-4.0991 -0.580723,-5.82087 -2.802098,-13.39689 8.355651,-5.39605 4.401545,-11.86675 0.818075,-0.66608 1.021294,-2.37336 1.223786,-4.27214 1.029124,-4.53477 0.274011,-2.05105 -2.218348,4.02023 -0.242725,0.58564 -0.507928,1.05178 -0.806392,1.39283 -6.452076,6.28268 2.793492,-17.66838 7.061854,-19.66185 1.497536,-0.188 -1.129757,-4.09396 -2.20898,-7.43332 -0.489906,-1.5378 -0.606642,-2.83927 0.102104,-3.53964 1.34315,-5.94994 2.840648,-1.2855 -2.404116,0.14845"
         inkscape:connector-curvature="0" />
      <path
         id="path9421"
         style="fill:none;stroke:#f9f9fa;stroke-width:0.1;stroke-linecap:butt;stroke-linejoin:miter;stroke-miterlimit:4;stroke-dasharray:none;stroke-opacity:1"
         d="m -25.25697,465.11252 c 1.444729,-8.42115 -3.106777,-12.35271 -6.435086,-19.10076 -1.125257,-2.27652 0.115048,-4.2256 -0.342394,-5.9683 -2.588039,-14.00803 10.537775,-3.79869 4.739073,-10.49063 0.68935,-0.63727 0.622026,-2.47198 0.484955,-4.54242 0.198402,-4.92333 -1.623126,-3.6813 -3.925088,2.76825 -0.224183,0.62172 -0.459731,1.11861 -0.717511,1.48704 -5.644101,6.74421 5.845453,-18.44804 10.425451,-19.0138 1.619675,0.29943 -1.556669,-3.6467 -3.107651,-7.04995 -0.706688,-1.56663 -1.02757,-2.91088 -0.430832,-3.61561 0.45008,-6.28588 0.563293,-1.66789 -4.915555,-1.41462"
         inkscape:connector-curvature="0" />
      <path
         id="path9423"
         style="fill:none;stroke:#f9f9fa;stroke-width:0.1;stroke-linecap:butt;stroke-linejoin:miter;stroke-miterlimit:4;stroke-dasharray:none;stroke-opacity:1"
         d="m -25.25697,465.11252 c 1.477251,-8.86478 -3.35573,-12.6032 -6.76037,-19.49621 -1.168603,-2.36101 0.319596,-4.35465 -0.09925,-6.11872 -2.369648,-14.63152 12.764049,-2.16899 5.083431,-9.08665 0.558021,-0.60788 0.21468,-2.5726 -0.268825,-4.81817 -0.649126,-5.31975 -3.558646,-5.34454 -5.666357,1.49093 -0.205266,0.65853 -0.41056,1.1868 -0.626832,1.58317 -4.81978,7.21507 8.959161,-19.24347 13.8571,-18.35265 1.744284,0.79674 -1.992217,-3.19038 -4.024503,-6.65881 -0.927857,-1.59606 -1.457016,-2.98395 -0.974552,-3.69313 -0.461059,-6.6286 -1.760136,-2.05801 -7.477806,-3.0093"
         inkscape:connector-curvature="0" />
      <path
         id="path9425"
         style="fill:none;stroke:#f9f9fa;stroke-width:0.1;stroke-linecap:butt;stroke-linejoin:miter;stroke-miterlimit:4;stroke-dasharray:none;stroke-opacity:1"
         d="m -25.25697,465.11252 c 1.51037,-9.31656 -3.609256,-12.8583 -7.09163,-19.89892 -1.212744,-2.44706 0.527903,-4.48608 0.148372,-6.2719 -2.147246,-15.26648 15.031222,-0.50936 5.434115,-7.65688 0.424279,-0.57795 -0.20015,-2.67507 -1.036452,-5.099 -1.512225,-5.72344 -5.529724,-7.03833 -7.439618,0.19016 -0.186,0.69602 -0.360485,1.25624 -0.534486,1.68106 -3.980314,7.69458 12.130072,-20.05352 17.351792,-17.67935 1.871184,1.30317 -2.435767,-2.72568 -4.958199,-6.26049 -1.153088,-1.62603 -1.89435,-3.05836 -1.528259,-3.77208 -1.388937,-6.97762 -4.126251,-2.45529 -10.087128,-4.63328"
         inkscape:connector-curvature="0" />
      <path
         id="path9427"
         style="fill:none;stroke:#f9f9fa;stroke-width:0.1;stroke-linecap:butt;stroke-linejoin:miter;stroke-miterlimit:4;stroke-dasharray:none;stroke-opacity:1"
         d="m -25.25697,465.11252 c 1.544047,-9.77594 -3.867048,-13.11769 -7.428464,-20.3084 -1.257628,-2.53456 0.739715,-4.61973 0.400155,-6.42766 -1.921102,-15.91212 17.336538,1.17819 5.7907,-6.20306 0.288286,-0.54752 -0.621959,-2.77927 -1.816995,-5.38454 -2.389845,-6.13394 -7.533963,-8.76062 -9.24271,-1.13251 -0.166411,0.73413 -0.309568,1.32685 -0.440588,1.7806 -3.126725,8.18215 15.35433,-20.87719 20.90528,-16.99473 2.000218,1.81813 -2.88678,-2.25316 -5.907604,-5.85547 -1.382109,-1.65649 -2.339042,-3.13402 -2.091282,-3.85234 -2.332425,-7.33252 -6.532173,-2.85927 -12.74035,-6.28458"
         inkscape:connector-curvature="0" />
      <path
         id="path9429"
         style="fill:none;stroke:#f9f9fa;stroke-width:0.1;stroke-linecap:butt;stroke-linejoin:miter;stroke-miterlimit:4;stroke-dasharray:none;stroke-opacity:1"
         d="m -25.25697,465.11252 c 1.578246,-10.24244 -4.12884,-13.38111 -7.770524,-20.72424 -1.303209,-2.62342 0.954813,-4.75544 0.655845,-6.58583 -1.691449,-16.56778 19.677626,2.89193 6.152817,-4.72668 0.150184,-0.51662 -1.050313,-2.88508 -2.609649,-5.67452 -3.281083,-6.5508 -9.569303,-10.50964 -11.073782,-2.4757 -0.146518,0.77285 -0.257861,1.39856 -0.345233,1.88168 -2.25989,8.6773 18.628621,-21.71364 24.513908,-16.29947 2.131255,2.34108 -3.34479,-1.77332 -6.87174,-5.44416 -1.614684,-1.68744 -2.790635,-3.21086 -2.663043,-3.93386 -3.290553,-7.69293 -8.975428,-3.26951 -15.434742,-7.96151"
         inkscape:connector-curvature="0" />
      <path
         id="path9431"
         style="fill:none;stroke:#f9f9fa;stroke-width:0.1;stroke-linecap:butt;stroke-linejoin:miter;stroke-miterlimit:4;stroke-dasharray:none;stroke-opacity:1"
         d="m -25.25697,465.11252 c 1.612938,-10.71567 -4.394402,-13.64832 -8.11751,-21.14607 -1.349446,-2.71355 1.173009,-4.89311 0.915217,-6.74628 -1.458489,-17.23288 22.052425,4.63034 6.520148,-3.22904 0.01009,-0.48527 -1.484835,-2.99241 -3.413716,-5.96867 -4.185155,-6.97366 -11.633951,-12.28384 -12.931221,-3.83822 -0.126338,0.8121 -0.205409,1.47128 -0.248504,1.98421 -1.380574,9.17957 21.950059,-22.56214 28.174499,-15.59421 2.264178,2.87156 -3.809397,-1.28656 -7.849761,-5.02693 -1.850606,-1.71883 -3.248729,-3.2888 -3.243035,-4.01655 -4.262479,-8.05852 -11.453865,-3.68566 -18.167933,-9.66258"
         inkscape:connector-curvature="0" />
      <path
         id="path9433"
         style="fill:none;stroke:#f9f9fa;stroke-width:0.1;stroke-linecap:butt;stroke-linejoin:miter;stroke-miterlimit:4;stroke-dasharray:none;stroke-opacity:1"
         d="m -25.25697,465.11252 c 1.648095,-11.19525 -4.66353,-13.91912 -8.469156,-21.57356 -1.396304,-2.80489 1.394135,-5.03263 1.178072,-6.90889 -1.2224,-17.90691 24.4591215,6.39211 6.892414,-1.71129 -0.13188,-0.45349 -1.925194,-3.10118 -4.228584,-6.26677 -5.101369,-7.40221 -13.72633,-14.08186 -14.813608,-5.21905 -0.105888,0.8519 -0.152253,1.545 -0.150477,2.08813 -0.489446,9.68859 25.316111,-23.42204 31.884258,-14.87948 2.398886,3.40917 -4.280243,-0.79326 -8.840917,-4.6041 -2.089699,-1.75063 -3.712978,-3.36778 -3.830818,-4.10035 -5.247459,-8.42902 -13.965592,-4.10739 -20.937835,-11.3865"
         inkscape:connector-curvature="0" />
      <path
         id="path9435"
         style="fill:none;stroke:#f9f9fa;stroke-width:0.1;stroke-linecap:butt;stroke-linejoin:miter;stroke-miterlimit:4;stroke-dasharray:none;stroke-opacity:1"
         d="m -25.25697,465.11252 c 1.683695,-11.68087 -4.936046,-14.19332 -8.825228,-22.00644 -1.443752,-2.89738 1.618044,-5.17389 1.444236,-7.07353 -0.983339,-18.58943 26.8961077,8.17604 7.269364,-0.17444 -0.275639,-0.42132 -2.371094,-3.21132 -5.053708,-6.56863 -6.029114,-7.83614 -15.845043,-15.90252 -16.719686,-6.61725 -0.08518,0.89219 -0.09843,1.61964 -0.05121,2.19335 0.412897,10.20402 28.724526,-24.29276 35.640707,-14.15575 2.5352903,3.95354 -4.757016,-0.29376 -9.844548,-4.17594 -2.331801,-1.78285 -4.183069,-3.44777 -4.425999,-4.1852 -6.244836,-8.80419 -16.508931,-4.53444 -23.742598,-13.13212"
         inkscape:connector-curvature="0" />
      <path
         id="path9437"
         style="fill:none;stroke:#f9f9fa;stroke-width:0.1;stroke-linecap:butt;stroke-linejoin:miter;stroke-miterlimit:4;stroke-dasharray:none;stroke-opacity:1"
         d="m -25.25697,465.11252 c 1.719717,-12.17223 -5.211788,-14.47078 -9.185516,-22.44444 -1.491762,-2.99097 1.844604,-5.31684 1.713551,-7.24014 -0.741448,-19.28002 29.3619492,9.98111 7.650778,1.38063 -0.4211,-0.38877 -2.822274,-3.32277 -5.888601,-6.87406 -6.967846,-8.27522 -17.988843,-17.74474 -18.648333,-8.03202 -0.06423,0.93296 -0.04397,1.69516 0.04922,2.29982 1.325923,10.72554 32.173298,-25.17379 39.441633,-13.42345 2.6733096,4.50435 -5.239433,0.21166 -10.860062,-3.74272 -2.576769,-1.81543 -4.658726,-3.5287 -5.028228,-4.27106 -7.254021,-9.1838 -19.082383,-4.96654 -26.58057,-14.89841"
         inkscape:connector-curvature="0" />
      <path
         id="path9439"
         style="fill:none;stroke:#f9f9fa;stroke-width:0.1;stroke-linecap:butt;stroke-linejoin:miter;stroke-miterlimit:4;stroke-dasharray:none;stroke-opacity:1"
         d="m -25.25697,465.11252 c 1.756141,-12.66909 -5.490613,-14.75133 -9.549831,-22.88733 -1.540308,-3.08561 2.073697,-5.46139 1.985877,-7.40861 -0.496854,-19.97833 31.8553537,11.80635 8.036455,2.95306 -0.568188,-0.35585 -3.278498,-3.43546 -6.732827,-7.1829 -7.91707,-8.7192 -20.156607,-19.60754 -20.598539,-9.4626 -0.04304,0.9742 0.01111,1.77154 0.150781,2.40749 2.249156,11.2529 35.660622,-26.06467 43.2850477,-12.68298 2.8128715,5.06133 -5.7272437,0.72274 -11.8869287,-3.30464 -2.824474,-1.84839 -5.1397,-3.61053 -5.637187,-4.35788 -8.274488,-9.56765 -21.684603,-5.40347 -29.450267,-16.68444"
         inkscape:connector-curvature="0" />
      <path
         id="path9441"
         style="fill:none;stroke:#f9f9fa;stroke-width:0.1;stroke-linecap:butt;stroke-linejoin:miter;stroke-miterlimit:4;stroke-dasharray:none;stroke-opacity:1"
         d="m -25.25697,465.11252 c 1.792951,-13.17121 -5.77239,-15.03486 -9.918003,-23.33492 -1.589369,-3.18124 2.305215,-5.60745 2.261085,-7.57885 -0.249669,-20.68404 34.3751553,13.65091 8.426215,4.54214 -0.716832,-0.32258 -3.739551,-3.54934 -7.58599,-7.49501 -8.876343,-9.16788 -22.347319,-21.49007 -22.56939,-10.90832 -0.02163,1.01586 0.06676,1.84871 0.253416,2.51628 3.182162,11.78584 39.184863,-26.96497 47.1691495,-11.93465 2.9539109,5.6242 -6.2202175,1.23921 -12.9246655,-2.86194 -3.074803,-1.88169 -5.625766,-3.69323 -6.252594,-4.44561 -9.305758,-9.95557 -24.31437,-5.84503 -32.350343,-18.48938"
         inkscape:connector-curvature="0" />
      <path
         id="path9443"
         style="fill:none;stroke:#f9f9fa;stroke-width:0.1;stroke-linecap:butt;stroke-linejoin:miter;stroke-miterlimit:4;stroke-dasharray:none;stroke-opacity:1"
         d="m -25.25697,465.11252 c 1.830131,-13.67838 -6.056999,-15.32123 -10.289877,-23.787 -1.638922,-3.27784 2.539061,-5.755 2.539061,-7.75081 0,-21.39685 36.9202903,15.51401 8.819894,6.1472 -0.866972,-0.28899 -4.205241,-3.66438 -8.447731,-7.81026 -9.84526,-9.62108 -24.560057,-23.39153 -24.560057,-12.36858 0,1.05794 0.122975,1.92666 0.357083,2.62617 4.124549,12.32414 42.744537,-27.87433 51.0923022,-11.1788 3.0963683,6.19273 -6.7181482,1.76088 -13.9728352,-2.41478 -3.327649,-1.91534 -6.116719,-3.77677 -6.874188,-4.53424 -10.347396,-10.34738 -26.970577,-6.29102 -35.279576,-20.31246"
         inkscape:connector-curvature="0" />
    </g>
    <g
       id="g13170"
       style="stroke:#f9f9fa;stroke-width:0.1;stroke-miterlimit:4;stroke-dasharray:none"
       transform="translate(132.79504,-237.10678)">
      <path
         d="m -25.25697,465.11252 c -0.657572,-12.29191 -9.639207,-9.4755 -16.198389,-13.45411 -1.38946,-0.8428 -2.670215,-1.99053 -3.740111,-3.65138 -5.326046,-8.26789 -5.854686,-24.92182 0.144104,-15.82927 1.945662,2.9491 3.075947,4.89112 3.535091,6.07327 1.428983,3.67917 -3.642868,-0.002 -10.86737,-3.59134 -4.693031,-2.33163 -10.294436,-4.6245 -15.612302,-4.83583 -2.064605,-0.0821 -4.086472,0.14965 -5.995852,0.81464 -14.879972,5.18233 -10.262899,-5.626 -24.118919,-3.11581"
         style="fill:none;stroke:#f9f9fa;stroke-width:0.1;stroke-linecap:butt;stroke-linejoin:miter;stroke-miterlimit:4;stroke-dasharray:none;stroke-opacity:1"
         id="path13136"
         inkscape:connector-curvature="0" />
      <path
         d="m -25.25697,465.11252 c -0.682721,-12.2389 -10.064727,-9.40604 -16.560646,-13.50913 -1.383015,-0.87997 -2.661581,-2.06282 -3.738092,-3.74402 -5.339701,-8.33498 -6.079777,-24.83064 -0.635448,-16.08607 1.777033,2.83695 2.758734,4.73844 3.082106,5.955 1.237348,3.6375 -3.049204,0.0872 -9.878885,-3.46054 -4.301203,-2.39182 -10.337593,-4.8584 -15.637274,-4.9509 -2.069628,-0.0281 -4.104366,0.25003 -6.035281,0.94393 -14.703511,5.20589 -10.682821,-5.03624 -24.439483,-2.83137"
         style="fill:none;stroke:#f9f9fa;stroke-width:0.1;stroke-linecap:butt;stroke-linejoin:miter;stroke-miterlimit:4;stroke-dasharray:none;stroke-opacity:1"
         id="path13138"
         inkscape:connector-curvature="0" />
      <path
         d="m -25.25697,465.11252 c -0.715349,-12.17011 -10.616796,-9.31592 -17.030637,-13.58051 -1.374655,-0.9282 -2.65038,-2.15661 -3.735473,-3.86423 -5.357416,-8.42201 -6.371809,-24.71232 -1.646835,-16.41922 1.558254,2.69145 2.347181,4.54034 2.494402,5.80155 0.988722,3.58344 -2.278986,0.20299 -8.596426,-3.29084 -3.792847,-2.46991 -10.393586,-5.16187 -15.669672,-5.10018 -2.076145,0.0418 -4.127581,0.38026 -6.086437,1.11167 -14.474571,5.23645 -11.227625,-4.2711 -24.855382,-2.46236"
         style="fill:none;stroke:#f9f9fa;stroke-width:0.1;stroke-linecap:butt;stroke-linejoin:miter;stroke-miterlimit:4;stroke-dasharray:none;stroke-opacity:1"
         id="path13140"
         inkscape:connector-curvature="0" />
      <path
         d="m -25.25697,465.11252 c -0.751558,-12.09378 -11.229459,-9.21592 -17.552213,-13.65973 -1.365377,-0.98172 -2.63795,-2.26069 -3.732567,-3.99761 -5.377076,-8.51861 -6.695893,-24.58103 -2.76923,-16.78895 1.315462,2.52996 1.890458,4.3205 1.842195,5.63125 0.712807,3.52345 -1.424231,0.33146 -7.173209,-3.10251 -3.228695,-2.55657 -10.455723,-5.49865 -15.705625,-5.26584 -2.083377,0.11947 -4.153345,0.52478 -6.143208,1.29781 -14.220502,5.27037 -11.832226,-3.42197 -25.316923,-2.05283"
         style="fill:none;stroke:#f9f9fa;stroke-width:0.1;stroke-linecap:butt;stroke-linejoin:miter;stroke-miterlimit:4;stroke-dasharray:none;stroke-opacity:1"
         id="path13142"
         inkscape:connector-curvature="0" />
      <path
         d="m -25.25697,465.11252 c -0.790309,-12.01209 -11.885117,-9.10889 -18.110393,-13.74451 -1.355447,-1.03899 -2.624647,-2.37208 -3.729456,-4.14036 -5.398116,-8.62198 -7.042721,-24.44053 -3.970393,-17.18463 1.055632,2.35716 1.401683,4.08524 1.144216,5.44901 0.417529,3.45925 -0.50949,0.46896 -5.650112,-2.90097 -2.624952,-2.6493 -10.522222,-5.85905 -15.744102,-5.44313 -2.091117,0.20256 -4.180916,0.67945 -6.203962,1.49702 -13.948604,5.30667 -12.479257,-2.51325 -25.810868,-1.61456"
         style="fill:none;stroke:#f9f9fa;stroke-width:0.1;stroke-linecap:butt;stroke-linejoin:miter;stroke-miterlimit:4;stroke-dasharray:none;stroke-opacity:1"
         id="path13144"
         inkscape:connector-curvature="0" />
      <path
         d="m -25.25697,465.11252 c -0.831066,-11.92617 -12.574723,-8.99633 -18.697472,-13.83368 -1.345005,-1.09923 -2.610656,-2.48923 -3.726186,-4.2905 -5.420244,-8.73071 -7.407506,-24.29274 -5.233746,-17.60079 0.782348,2.17541 0.887601,3.8378 0.410099,5.25733 0.106962,3.39172 0.452612,0.61357 -4.048156,-2.68899 -1.989949,-2.74685 -10.592163,-6.23812 -15.784571,-5.6296 -2.099257,0.28995 -4.209915,0.84212 -6.267863,1.70655 -13.662628,5.34484 -13.159788,-1.55749 -26.330375,-1.15362"
         style="fill:none;stroke:#f9f9fa;stroke-width:0.1;stroke-linecap:butt;stroke-linejoin:miter;stroke-miterlimit:4;stroke-dasharray:none;stroke-opacity:1"
         id="path13146"
         inkscape:connector-curvature="0" />
      <path
         d="m -25.25697,465.11252 c -0.873496,-11.83673 -13.292646,-8.87914 -19.30866,-13.92651 -1.334132,-1.16194 -2.596089,-2.61119 -3.72278,-4.4468 -5.443282,-8.8439 -7.787271,-24.1389 -6.548978,-18.03404 0.497842,1.98618 0.352408,3.58018 -0.354165,5.05777 -0.216357,3.32143 1.454222,0.76412 -2.380416,-2.4683 -1.328871,-2.8484 -10.664977,-6.63276 -15.826702,-5.82373 -2.107732,0.38093 -4.240104,1.01147 -6.334387,1.92467 -13.364908,5.3846 -13.868265,-0.56247 -26.871222,-0.67373"
         style="fill:none;stroke:#f9f9fa;stroke-width:0.1;stroke-linecap:butt;stroke-linejoin:miter;stroke-miterlimit:4;stroke-dasharray:none;stroke-opacity:1"
         id="path13148"
         inkscape:connector-curvature="0" />
      <path
         d="m -25.25697,465.11252 c -0.917371,-11.74423 -14.035008,-8.75797 -19.940653,-14.0225 -1.32289,-1.22678 -2.581027,-2.73731 -3.719257,-4.60843 -5.467104,-8.96094 -8.179965,-23.97981 -7.908982,-18.48204 0.203652,1.79053 -0.201003,3.31381 -1.144444,4.85143 -0.550682,3.24874 2.489927,0.9198 -0.655906,-2.2401 -0.64529,-2.95341 -10.74027,-7.04083 -15.870268,-6.02447 -2.116495,0.475 -4.271321,1.18659 -6.403175,2.15023 -13.057055,5.42569 -14.600859,0.46641 -27.430475,-0.17751"
         style="fill:none;stroke:#f9f9fa;stroke-width:0.1;stroke-linecap:butt;stroke-linejoin:miter;stroke-miterlimit:4;stroke-dasharray:none;stroke-opacity:1"
         id="path13150"
         inkscape:connector-curvature="0" />
      <path
         d="m -25.25697,465.11252 c -0.962522,-11.64905 -14.798954,-8.63327 -20.59102,-14.12128 -1.311321,-1.29352 -2.565528,-2.86709 -3.715634,-4.77476 -5.491618,-9.08138 -8.584073,-23.81609 -9.308526,-18.94306 -0.09909,1.58918 -0.770503,3.03969 -1.957699,4.63908 -0.894728,3.17394 3.555744,1.08001 1.118742,-2.00526 0.05817,-3.06147 -10.817751,-7.46077 -15.915099,-6.23105 -2.125513,0.57181 -4.303446,1.3668 -6.473964,2.38234 -12.74025,5.46799 -15.354752,1.52522 -28.00599,0.33314"
         style="fill:none;stroke:#f9f9fa;stroke-width:0.1;stroke-linecap:butt;stroke-linejoin:miter;stroke-miterlimit:4;stroke-dasharray:none;stroke-opacity:1"
         id="path13152"
         inkscape:connector-curvature="0" />
      <path
         d="m -25.25697,465.11252 c -1.008818,-11.55146 -15.582285,-8.5054 -21.257891,-14.22257 -1.299458,-1.36194 -2.549634,-3.00016 -3.711917,-4.9453 -5.516755,-9.20488 -8.998438,-23.64823 -10.743585,-19.41579 -0.409518,1.38273 -1.354455,2.75862 -2.791591,4.42136 -1.247505,3.09723 4.648607,1.24426 2.938423,-1.76448 0.779473,-3.17227 -10.897199,-7.89136 -15.961068,-6.44286 -2.13476,0.67108 -4.336387,1.55158 -6.54655,2.62034 -12.415406,5.51136 -16.127776,2.61088 -28.596101,0.85674"
         style="fill:none;stroke:#f9f9fa;stroke-width:0.1;stroke-linecap:butt;stroke-linejoin:miter;stroke-miterlimit:4;stroke-dasharray:none;stroke-opacity:1"
         id="path13154"
         inkscape:connector-curvature="0" />
      <path
         d="m -25.25697,465.11252 c -1.056157,-11.45166 -16.383251,-8.37466 -21.939775,-14.32614 -1.287329,-1.4319 -2.533383,-3.13623 -3.708118,-5.11968 -5.542457,-9.33117 -9.422131,-23.47659 -12.210951,-19.89916 -0.726932,1.17162 -1.951553,2.47121 -3.644257,4.19872 -1.608222,3.01881 5.766074,1.41224 4.799071,-1.51826 1.517019,-3.28557 -10.978434,-8.33164 -16.008072,-6.65945 -2.144215,0.77259 -4.370069,1.74052 -6.620769,2.86371 -12.08325,5.5557 -16.918199,3.72098 -29.199509,1.39213"
         style="fill:none;stroke:#f9f9fa;stroke-width:0.1;stroke-linecap:butt;stroke-linejoin:miter;stroke-miterlimit:4;stroke-dasharray:none;stroke-opacity:1"
         id="path13156"
         inkscape:connector-curvature="0" />
      <path
         d="m -25.25697,465.11252 c -1.104453,-11.34985 -17.200423,-8.24127 -22.635455,-14.43181 -1.274954,-1.50328 -2.516804,-3.27505 -3.704241,-5.29759 -5.56868,-9.46 -9.854396,-23.30146 -13.708006,-20.3923 -1.050768,0.95624 -2.560731,2.17799 -4.514173,3.97158 -1.976239,2.93879 6.906149,1.5836 6.697363,-1.26707 2.269487,-3.40115 -11.061314,-8.78083 -16.056028,-6.88041 -2.153861,0.87614 -4.404431,1.93329 -6.696489,3.11199 -11.744372,5.60094 -17.724621,4.85355 -29.815121,1.93836"
         style="fill:none;stroke:#f9f9fa;stroke-width:0.1;stroke-linecap:butt;stroke-linejoin:miter;stroke-miterlimit:4;stroke-dasharray:none;stroke-opacity:1"
         id="path13158"
         inkscape:connector-curvature="0" />
      <path
         d="m -25.25697,465.11252 c -1.153636,-11.24617 -18.032607,-8.10543 -23.343916,-14.53941 -1.262351,-1.57597 -2.499919,-3.41643 -3.700293,-5.47877 -5.595384,-9.59121 -10.294602,-23.12313 -15.232562,-20.89451 -1.380554,0.73691 -3.181102,1.87939 -5.400072,3.74027 -2.351017,2.8573 8.067169,1.75811 8.63053,-1.01126 3.035778,-3.51887 -11.145717,-9.23828 -16.104864,-7.10544 -2.163685,0.9816 -4.439426,2.12959 -6.773601,3.36483 -11.39927,5.64701 -18.545852,6.00693 -30.442042,2.49462"
         style="fill:none;stroke:#f9f9fa;stroke-width:0.1;stroke-linecap:butt;stroke-linejoin:miter;stroke-miterlimit:4;stroke-dasharray:none;stroke-opacity:1"
         id="path13160"
         inkscape:connector-curvature="0" />
      <path
         d="m -25.25697,465.11252 c -1.203647,-11.14074 -18.878792,-7.96731 -24.064296,-14.64883 -1.249536,-1.64988 -2.48275,-3.56017 -3.696279,-5.663 -5.622537,-9.72461 -10.742214,-22.94179 -16.782767,-21.40516 -1.715889,0.51389 -3.81191,1.57576 -6.300875,3.50507 -2.732099,2.77445 9.247721,1.93555 10.59622,-0.75115 3.814962,-3.63856 -11.231539,-9.70342 -16.154522,-7.33425 -2.173674,1.08883 -4.475009,2.3292 -6.85201,3.62193 -11.048362,5.69386 -19.380911,7.17971 -31.079511,3.06024"
         style="fill:none;stroke:#f9f9fa;stroke-width:0.1;stroke-linecap:butt;stroke-linejoin:miter;stroke-miterlimit:4;stroke-dasharray:none;stroke-opacity:1"
         id="path13162"
         inkscape:connector-curvature="0" />
      <path
         d="m -25.25697,465.11252 c -1.254434,-11.03368 -19.738107,-7.82704 -24.795854,-14.75994 -1.236523,-1.72495 -2.465316,-3.70616 -3.692202,-5.85009 -5.650112,-9.8601 -11.196772,-22.75764 -18.357029,-21.92374 -2.056426,0.2874 -4.452506,1.26742 -7.215656,3.26622 -3.119095,2.6903 10.446594,2.11575 12.592412,-0.48701 4.606237,-3.7601 -11.318692,-10.17577 -16.20495,-7.5666 -2.183817,1.19772 -4.511144,2.5319 -6.931635,3.88302 -10.692006,5.74142 -20.228916,8.37068 -31.726876,3.63463"
         style="fill:none;stroke:#f9f9fa;stroke-width:0.1;stroke-linecap:butt;stroke-linejoin:miter;stroke-miterlimit:4;stroke-dasharray:none;stroke-opacity:1"
         id="path13164"
         inkscape:connector-curvature="0" />
      <path
         d="m -25.25697,465.11252 c -1.305953,-10.92507 -20.609796,-7.68476 -25.537946,-14.87265 -1.223322,-1.80109 -2.44763,-3.85425 -3.688067,-6.03988 -5.678084,-9.99752 -11.657876,-22.57084 -19.953959,-22.44978 -2.401867,0.0577 -5.102325,0.95463 -8.143609,3.02393 -3.511663,2.60495 11.662729,2.29854 14.617349,-0.21906 5.408906,-3.8834 -11.407101,-10.65493 -16.256104,-7.80231 -2.194107,1.30818 -4.5478,2.73753 -7.012408,4.14786 -10.330526,5.78969 -21.089136,9.57882 -32.383556,4.2173"
         style="fill:none;stroke:#f9f9fa;stroke-width:0.1;stroke-linecap:butt;stroke-linejoin:miter;stroke-miterlimit:4;stroke-dasharray:none;stroke-opacity:1"
         id="path13166"
         inkscape:connector-curvature="0" />
      <path
         d="m -25.25697,465.11252 c -1.358163,-10.81501 -21.493193,-7.54056 -26.290006,-14.98688 -1.209944,-1.87825 -2.429706,-4.00432 -3.683876,-6.2322 -5.706431,-10.13681 -12.125172,-22.38154 -21.572337,-22.9829 -2.751949,-0.17517 -5.760874,0.63765 -9.084027,2.77838 -3.909504,2.51845 12.895199,2.4838 16.669484,0.0525 6.222355,-4.00836 -11.496698,-11.14053 -16.307946,-8.04119 -2.204535,1.42013 -4.584948,2.94592 -7.094266,4.41627 -9.964186,5.8386 -21.960906,10.80317 -33.049056,4.80779"
         style="fill:none;stroke:#f9f9fa;stroke-width:0.1;stroke-linecap:butt;stroke-linejoin:miter;stroke-miterlimit:4;stroke-dasharray:none;stroke-opacity:1"
         id="path13168"
         inkscape:connector-curvature="0" />
    </g>
    <g
       id="g15432"
       style="stroke:#f9f9fa;stroke-width:0.1;stroke-miterlimit:4;stroke-dasharray:none"
       transform="translate(132.79504,-237.10678)">
      <path
         id="path15398"
         style="fill:none;stroke:#f9f9fa;stroke-width:0.1;stroke-linecap:butt;stroke-linejoin:miter;stroke-miterlimit:4;stroke-dasharray:none;stroke-opacity:1"
         d="m -25.25697,465.11252 c 2.535169,-19.1434 10.711076,-16.70557 17.1287577,-24.5127 3.1076934,-3.78052 7.75379034,-19.28084 6.2423482,-23.56123 -0.5028306,-1.42401 -1.6871635,-1.60622 -3.8363676,0.29802 -10.6817833,9.46427 0.1617893,10.58945 12.0845072,10.33098 7.3579225,-0.15951 15.1268435,-0.84598 18.5011065,-0.42463 8.945624,1.11707 14.650994,5.84588 21.11125,9.8375 6.266068,3.87164 13.242321,7.04974 24.574351,5.56587"
         inkscape:connector-curvature="0" />
      <path
         id="path15400"
         style="fill:none;stroke:#f9f9fa;stroke-width:0.1;stroke-linecap:butt;stroke-linejoin:miter;stroke-miterlimit:4;stroke-dasharray:none;stroke-opacity:1"
         d="m -25.25697,465.11252 c 2.504144,-18.88117 10.704865,-16.62861 17.2251351,-24.3333 3.2123524,-3.76028 7.91406617,-18.85341 6.6187375,-23.27464 -0.4559218,-1.4254 -1.5789969,-1.65097 -3.640543,0.13798 -10.1984136,8.67821 -0.3888862,9.58391 11.3319998,9.7142 7.2282076,0.0718 14.9178096,-0.63222 18.3844986,-0.31691 8.881541,0.96754 14.659414,5.34648 21.096138,9.32568 6.328045,3.91284 12.979449,7.28827 24.209143,6.04229"
         inkscape:connector-curvature="0" />
      <path
         id="path15402"
         style="fill:none;stroke:#f9f9fa;stroke-width:0.1;stroke-linecap:butt;stroke-linejoin:miter;stroke-miterlimit:4;stroke-dasharray:none;stroke-opacity:1"
         d="m -25.25697,465.11252 c 2.463893,-18.54094 10.696807,-16.52876 17.3501748,-24.10055 3.3481366,-3.73402 8.12200754,-18.29887 7.10706388,-22.90283 -0.39506268,-1.4272 -1.43866198,-1.709 -3.38648088,-0.0696 -9.5712908,7.65838 -1.1033309,8.27933 10.355699,8.91399 7.0599162,0.37178 14.6466092,-0.35487 18.2332112,-0.17715 8.798402,0.77353 14.670338,4.69856 21.076533,8.66163 6.408454,3.9663 12.6384,7.59775 23.735322,6.66041"
         inkscape:connector-curvature="0" />
      <path
         id="path15404"
         style="fill:none;stroke:#f9f9fa;stroke-width:0.1;stroke-linecap:butt;stroke-linejoin:miter;stroke-miterlimit:4;stroke-dasharray:none;stroke-opacity:1"
         d="m -25.25697,465.11252 c 2.419224,-18.16338 10.687865,-16.41795 17.4889386,-23.84225 3.4988242,-3.70488 8.35277207,-17.68346 7.64898784,-22.4902 -0.32752382,-1.42921 -1.28292424,-1.77343 -3.10453344,-0.30006 -8.875337,6.5266 -1.8961914,6.83156 9.2722417,8.02594 6.8731533,0.70475 14.3456423,-0.0471 18.0653193,-0.022 8.706136,0.55823 14.682461,3.97952 21.054776,7.92471 6.497688,4.02563 12.259918,7.94119 23.209495,7.34636"
         inkscape:connector-curvature="0" />
      <path
         id="path15406"
         style="fill:none;stroke:#f9f9fa;stroke-width:0.1;stroke-linecap:butt;stroke-linejoin:miter;stroke-miterlimit:4;stroke-dasharray:none;stroke-opacity:1"
         d="m -25.25697,465.11252 c 2.371421,-17.75932 10.678295,-16.29936 17.6374406,-23.56583 3.6600869,-3.67368 8.59973134,-17.02486 8.22894323,-22.04862 -0.25524513,-1.43134 -1.11625709,-1.84236 -2.80279943,-0.54664 -8.1305414,5.31541 -2.7446936,5.28219 8.112749,7.07558 6.6732846,1.06108 14.0235546,0.2823 17.8856456,0.14393 8.607395,0.32783 14.695434,3.21003 21.031491,7.13607 6.593185,4.08912 11.854874,8.30873 22.646768,8.08045"
         inkscape:connector-curvature="0" />
      <path
         id="path15408"
         style="fill:none;stroke:#f9f9fa;stroke-width:0.1;stroke-linecap:butt;stroke-linejoin:miter;stroke-miterlimit:4;stroke-dasharray:none;stroke-opacity:1"
         d="m -25.25697,465.11252 c 2.321142,-17.33434 10.66823,-16.17463 17.7936314,-23.27509 3.829699,-3.64089 8.8594771,-16.33216 8.8389261,-21.58418 -0.1792241,-1.4336 -0.94096059,-1.91487 -2.4854428,-0.80598 -7.3471847,4.0415 -3.6371276,3.65259 6.8932228,6.07599 6.4630665,1.43587 13.6847905,0.62874 17.6966685,0.31852 8.503542,0.0855 14.709079,2.40069 21.007001,6.3066 6.693626,4.1559 11.42886,8.6953 22.054904,8.85255"
         inkscape:connector-curvature="0" />
      <path
         id="path15410"
         style="fill:none;stroke:#f9f9fa;stroke-width:0.1;stroke-linecap:butt;stroke-linejoin:miter;stroke-miterlimit:4;stroke-dasharray:none;stroke-opacity:1"
         d="m -25.25697,465.11252 c 2.268798,-16.8919 10.657752,-16.04479 17.9562361,-22.97242 4.006276,-3.60673 9.129889,-15.61102 9.4739575,-21.10065 -0.1000814,-1.43595 -0.7584657,-1.99036 -2.15505426,-1.07599 -6.53165934,2.71528 -4.56620874,1.95608 5.62361756,5.03538 6.2442161,1.82604 13.3321151,0.9894 17.4999311,0.50026 8.395425,-0.1668 14.723285,1.55812 20.981505,5.44306 6.798193,4.22542 10.985352,9.09776 21.438737,9.65636"
         inkscape:connector-curvature="0" />
      <path
         id="path15412"
         style="fill:none;stroke:#f9f9fa;stroke-width:0.1;stroke-linecap:butt;stroke-linejoin:miter;stroke-miterlimit:4;stroke-dasharray:none;stroke-opacity:1"
         d="m -25.25697,465.11252 c 2.214673,-16.43441 10.646916,-15.91052 18.1243758,-22.65944 4.1888639,-3.57142 9.409506,-14.86533 10.1306056,-20.60068 -0.018245,-1.43837 -0.5697586,-2.06841 -1.8134192,-1.35518 -5.6883734,1.34392 -5.526916,0.20183 4.3107948,3.95934 6.017916,2.2295 12.967434,1.36235 17.296497,0.6882 8.283627,-0.42768 14.737974,0.68686 20.955142,4.55013 6.906317,4.29731 10.526746,9.5139 20.801594,10.48753"
         inkscape:connector-curvature="0" />
      <path
         id="path15414"
         style="fill:none;stroke:#f9f9fa;stroke-width:0.1;stroke-linecap:butt;stroke-linejoin:miter;stroke-miterlimit:4;stroke-dasharray:none;stroke-opacity:1"
         d="m -25.25697,465.11252 c 2.158974,-15.96362 10.635766,-15.77234 18.2974041,-22.33736 4.3767603,-3.53508 9.6972525,-14.09796 10.8063452,-20.08617 0.065971,-1.44086 -0.3755651,-2.14873 -1.4618515,-1.64249 -4.8205696,-0.0673 -6.515555,-1.60343 2.9598028,2.85201 5.7850364,2.64468 12.5921514,1.74614 17.0871474,0.88161 8.16858,-0.69615 14.753091,-0.20973 20.928012,3.63123 7.017587,4.37129 10.054807,9.94215 20.145928,11.34286"
         inkscape:connector-curvature="0" />
      <path
         id="path15416"
         style="fill:none;stroke:#f9f9fa;stroke-width:0.1;stroke-linecap:butt;stroke-linejoin:miter;stroke-miterlimit:4;stroke-dasharray:none;stroke-opacity:1"
         d="m -25.25697,465.11252 c 2.101862,-15.48087 10.624333,-15.63067 18.4748231,-22.00711 4.5694247,-3.49782 9.9923007,-13.31111 11.4992319,-19.5586 0.1523245,-1.44342 -0.1764437,-2.23109 -1.1013624,-1.93709 -3.93074479,-1.51436 -7.5292812,-3.45451 1.5745286,1.71659 5.5462478,3.0704 12.2073448,2.13966 16.8724868,1.07991 8.050611,-0.97142 14.768591,-1.12906 20.900193,2.68902 7.131679,4.44715 9.570892,10.38127 19.473624,12.2199"
         inkscape:connector-curvature="0" />
      <path
         id="path15418"
         style="fill:none;stroke:#f9f9fa;stroke-width:0.1;stroke-linecap:butt;stroke-linejoin:miter;stroke-miterlimit:4;stroke-dasharray:none;stroke-opacity:1"
         d="m -25.25697,465.11252 c 2.043463,-14.98727 10.612642,-15.4858 18.6562363,-21.66943 4.7664266,-3.45972 10.2939914,-12.50655 12.2077179,-19.01915 0.2406217,-1.44604 0.02716,-2.3153 -0.7327576,-2.23832 -3.0208872,-2.99398 -8.5658298,-5.34725 0.1580674,0.5556 5.302083,3.50571 11.813875,2.54204 16.652993,1.28268 7.929988,-1.25289 14.784439,-2.06909 20.871748,1.72561 7.248341,4.5247 9.076083,10.83026 18.786184,13.11668"
         inkscape:connector-curvature="0" />
      <path
         id="path15420"
         style="fill:none;stroke:#f9f9fa;stroke-width:0.1;stroke-linecap:butt;stroke-linejoin:miter;stroke-miterlimit:4;stroke-dasharray:none;stroke-opacity:1"
         d="m -25.25697,465.11252 c 1.983884,-14.48367 10.600715,-15.338 18.84132,-21.32491 4.9674142,-3.42085 10.6017859,-11.68571 12.9305379,-18.46879 0.3307053,-1.44871 0.234884,-2.40123 -0.3566951,-2.54565 -2.0926213,-4.50354 -9.6233499,-7.27829 -1.2870518,-0.62888 5.0529782,3.94982 11.412445,2.95257 16.429058,1.48956 7.806924,-1.54006 14.800609,-3.02815 20.842728,0.74269 7.367362,4.60384 8.571263,11.28835 18.084835,14.03161"
         inkscape:connector-curvature="0" />
      <path
         id="path15422"
         style="fill:none;stroke:#f9f9fa;stroke-width:0.1;stroke-linecap:butt;stroke-linejoin:miter;stroke-miterlimit:4;stroke-dasharray:none;stroke-opacity:1"
         d="m -25.25697,465.11252 c 1.92321,-13.97082 10.588569,-15.18748 19.0298038,-20.97406 5.1720942,-3.38127 10.915235,-10.8498 13.666637,-17.90832 0.4224438,-1.45143 0.4464236,-2.48873 0.026276,-2.85862 -1.1473021,-6.04083 -10.7002978,-9.24481 -2.7587194,-1.83512 4.7992971,4.40209 11.0036396,3.37064 16.2010096,1.70023 7.681599,-1.8325 14.817075,-4.00481 20.813175,-0.25827 7.488569,4.68442 8.057167,11.75484 17.370601,14.96334"
         inkscape:connector-curvature="0" />
      <path
         id="path15424"
         style="fill:none;stroke:#f9f9fa;stroke-width:0.1;stroke-linecap:butt;stroke-linejoin:miter;stroke-miterlimit:4;stroke-dasharray:none;stroke-opacity:1"
         d="m -25.25697,465.11252 c 1.861515,-13.44934 10.576218,-15.03444 19.2214586,-20.61731 5.38021785,-3.34102 11.2339576,-9.99982 14.4151203,-17.33842 0.5157258,-1.45419 0.6615222,-2.57769 0.4156903,-3.17686 -0.1860788,-7.60398 -11.7953643,-11.24441 -4.2551464,-3.06165 4.541348,4.86197 10.5879572,3.79574 15.9691242,1.91445 7.554166,-2.12986 14.833819,-4.99792 20.783124,-1.27608 7.611817,4.76636 7.534424,12.22919 16.644352,15.91075"
         inkscape:connector-curvature="0" />
      <path
         id="path15426"
         style="fill:none;stroke:#f9f9fa;stroke-width:0.1;stroke-linecap:butt;stroke-linejoin:miter;stroke-miterlimit:4;stroke-dasharray:none;stroke-opacity:1"
         d="m -25.25697,465.11252 c 1.798862,-12.91978 10.563676,-14.87902 19.4160875,-20.25503 5.59157092,-3.30014 11.5576259,-9.13665 15.1752181,-16.75967 0.6104553,-1.457 0.8799584,-2.66805 0.8111474,-3.50003 0.79006,-9.1914 -12.9074236,-13.27505 -5.7747943,-4.30722 4.2793962,5.32899 10.1658233,4.22744 15.7336403,2.132 7.424755,-2.43184 14.850823,-6.00644 20.752607,-2.3097 7.736976,4.84958 7.003569,12.7109 15.906834,16.87287"
         inkscape:connector-curvature="0" />
      <path
         id="path15428"
         style="fill:none;stroke:#f9f9fa;stroke-width:0.1;stroke-linecap:butt;stroke-linejoin:miter;stroke-miterlimit:4;stroke-dasharray:none;stroke-opacity:1"
         d="m -25.25697,465.11252 c 1.735308,-12.38258 10.550953,-14.72136 19.6135189,-19.88753 5.80596737,-3.25867 11.8859549,-8.26105 15.9462611,-16.17259 0.706548,-1.45985 1.10154,-2.7597 1.212298,-3.82786 1.780255,-10.80167 -14.0354953,-15.33492 -7.3163236,-5.57072 4.0136725,5.80273 9.7376126,4.66535 15.4947656,2.35267 7.293481,-2.73816 14.868071,-7.02947 20.721651,-3.35818 7.863938,4.93399 6.46507,13.19954 15.158695,17.84884"
         inkscape:connector-curvature="0" />
      <path
         id="path15430"
         style="fill:none;stroke:#f9f9fa;stroke-width:0.1;stroke-linecap:butt;stroke-linejoin:miter;stroke-miterlimit:4;stroke-dasharray:none;stroke-opacity:1"
         d="m -25.25697,465.11252 c 1.6709,-11.83817 10.538059,-14.56158 19.8136021,-19.51509 6.02324355,-3.21665 12.2186938,-7.37369 16.7276599,-15.57763 0.803933,-1.46273 1.326098,-2.85258 1.618838,-4.1601 2.78375,-12.43356 -15.1787195,-17.42244 -8.8785588,-6.85118 3.7443796,6.28283 9.3036488,5.10915 15.2526828,2.57631 7.160444,-3.0486 14.885551,-8.06624 20.690279,-4.42075 7.992605,5.01953 5.919337,13.69475 14.400507,18.83791"
         inkscape:connector-curvature="0" />
    </g>
    <ellipse
       style="opacity:1;fill:#fa8130;fill-opacity:1;stroke:#f9f9fa;stroke-width:0.1;stroke-linecap:round;stroke-linejoin:round;stroke-miterlimit:4;stroke-dasharray:none;stroke-dashoffset:0;stroke-opacity:1;paint-order:stroke fill markers"
       id="path15716"
       cx="63.104137"
       cy="182.5127"
       rx="15.065518"
       ry="14.47723" />
    <g
       id="g1218"
       transform="translate(133.22994,-247.96322)"
       style="fill:#f9f9fa">
      <path
         inkscape:connector-curvature="0"
         id="path1025"
         d="m -76.209201,437.14508 c -0.631662,-0.351 -0.487227,-1.16016 -0.465767,-1.76234 -0.0318,-1.29851 -0.01225,-2.59781 -0.01749,-3.89667 2.041089,-1.7922 4.187004,-3.45907 6.284647,-5.18343 0.617029,-0.23351 1.075262,0.37228 1.469616,0.74446 1.718029,1.33878 3.359114,2.7831 5.090017,4.10993 0.615269,0.74365 0.231043,1.74977 0.346583,2.61648 0.0073,0.95024 0.01982,1.90196 -0.0491,2.85047 -0.382127,0.78087 -1.376726,0.52749 -2.075898,0.54512 -0.911568,-0.002 -1.82456,0.0168 -2.73448,-0.0503 -0.315122,-0.88937 -0.03022,-1.8402 -0.174389,-2.75193 0.137226,-0.61552 0.156445,-1.75382 -0.750323,-1.66917 -0.659317,0.06 -1.350948,-0.20493 -1.979708,0.0429 -0.717581,0.34155 -0.435908,1.18985 -0.446864,1.80941 0.01711,0.75781 -0.01391,1.51559 -0.04877,2.27247 -0.463483,0.60916 -1.286535,0.29316 -1.927131,0.32197 -0.83873,0.0694 -1.680992,0.005 -2.520946,6.9e-4 z"
         style="opacity:1;fill:#f9f9fa;fill-opacity:1;stroke:none;stroke-width:0.12626907;stroke-linecap:round;stroke-linejoin:round;stroke-miterlimit:4;stroke-dasharray:0.12626907, 0.75761442;stroke-dashoffset:0;stroke-opacity:1;paint-order:stroke fill markers" />
      <path
         inkscape:connector-curvature="0"
         id="path1027"
         d="m -78.558041,431.3306 c -0.578495,-0.39534 -1.446788,-1.42053 -0.581276,-1.97063 2.775056,-2.25289 5.495619,-4.5727 8.30071,-6.78859 0.852754,-0.48054 1.805922,0.12426 2.413558,0.72662 0.698156,0.52734 1.434197,1.43218 2.179962,1.63842 0.380604,-0.72032 -0.189888,-1.59804 0.269104,-2.28932 0.56134,-0.35951 1.39761,-0.28277 2.054158,-0.19464 0.804268,0.45496 0.275639,1.5668 0.423915,2.31635 -2.3e-4,0.85749 0.0031,1.71498 8.84e-4,2.57247 0.855901,0.85951 1.888397,1.51618 2.7569,2.36171 0.154826,0.78058 -0.647703,1.7675 -1.470397,1.46338 -2.574096,-2.10832 -5.129364,-4.25902 -7.737916,-6.33246 -0.997049,0.13948 -1.519061,1.12406 -2.338193,1.59569 -1.991524,1.63872 -3.973375,3.28942 -5.987424,4.90053 l -0.141979,0.0131 -0.142021,-0.0127 z"
         style="opacity:1;fill:#f9f9fa;fill-opacity:1;stroke:none;stroke-width:0.12626907;stroke-linecap:round;stroke-linejoin:round;stroke-miterlimit:4;stroke-dasharray:0.12626907, 0.75761442;stroke-dashoffset:0;stroke-opacity:1;paint-order:stroke fill markers" />
    </g>
    <ellipse
       style="opacity:1;fill:#fa8130;fill-opacity:1;stroke:#f9f9fa;stroke-width:0.1;stroke-linecap:round;stroke-linejoin:round;stroke-miterlimit:4;stroke-dasharray:none;stroke-dashoffset:0;stroke-opacity:1;paint-order:stroke fill markers"
       id="ellipse15720"
       cx="159.11012"
       cy="176.27609"
       rx="15.065518"
       ry="14.47723" />
    <path
       style="opacity:1;fill:#f9f9fa;fill-opacity:1;stroke:none;stroke-width:0.29413897;stroke-linecap:round;stroke-linejoin:round;stroke-miterlimit:4;stroke-dasharray:0.29413898, 1.76483386;stroke-dashoffset:0;stroke-opacity:1;paint-order:stroke fill markers"
       d="m 162.07474,184.71037 c -5.2308,-1.5958 -9.7015,-5.75272 -11.3863,-10.99022 -0.4213,-1.93217 0.6006,-4.18088 2.5027,-4.88555 1.0309,-0.12743 2.0771,0.69759 2.1855,1.73221 0.5481,0.93557 1.0138,2.1147 0.5479,3.17828 -0.9024,1.00114 -0.8172,2.74014 0.2225,3.61446 1.2192,1.49442 2.8357,2.6455 4.6125,3.38432 1.0546,0.0136 1.8715,-0.77259 2.5371,-1.49823 1.0455,-0.45263 2.2155,-0.007 3.1124,0.57528 1.4399,0.4202 1.9134,2.57093 0.7801,3.55504 -1.2148,1.47875 -3.3542,1.68237 -5.1144,1.33441 z"
       id="path1033"
       inkscape:connector-curvature="0" />
    <ellipse
       ry="14.47723"
       rx="15.065518"
       cy="153.21954"
       cx="103.16969"
       id="ellipse15718"
       style="opacity:1;fill:#fa8130;fill-opacity:1;stroke:#f9f9fa;stroke-width:0.1;stroke-linecap:round;stroke-linejoin:round;stroke-miterlimit:4;stroke-dasharray:none;stroke-dashoffset:0;stroke-opacity:1;paint-order:stroke fill markers" />
    <g
       id="g1214"
       transform="translate(208.46634,-260.47258)"
       style="fill:#f9f9fa">
      <path
         inkscape:connector-curvature="0"
         id="path1029"
         d="m -106.12162,415.61697 c -1.61863,-1.04888 -3.1076,-2.28122 -4.68287,-3.39188 -0.85406,-0.65193 -1.75143,-1.26496 -2.53699,-1.99518 -0.45689,-0.73203 -0.18018,-1.75975 0.42612,-2.31539 0.81601,-0.46532 1.78919,-0.23398 2.68038,-0.31312 4.17694,-0.041 8.35409,-0.004 12.531121,-0.0161 0.725951,0.37089 1.172199,1.16156 1.103643,1.97344 -0.05372,0.93511 -1.02548,1.32927 -1.655278,1.84534 -2.023116,1.50943 -4.038506,3.03659 -6.144716,4.42771 -0.55505,0.27651 -1.23781,0.14853 -1.72141,-0.21481 z"
         style="opacity:1;fill:#f9f9fa;fill-opacity:1;stroke:none;stroke-width:0.35714287;stroke-linecap:round;stroke-linejoin:round;stroke-miterlimit:4;stroke-dasharray:0.35714286, 2.14285718;stroke-dashoffset:0;stroke-opacity:1;paint-order:stroke fill markers" />
      <path
         inkscape:connector-curvature="0"
         id="path1031"
         d="m -112.65284,420.09317 c -0.82237,-0.41568 -0.97992,-1.4525 -0.84729,-2.27754 -0.002,-1.89744 -0.0301,-3.79576 0.0437,-5.69231 0.79923,-0.3436 1.25548,0.62921 1.88895,0.906 1.76786,1.12417 3.32153,2.55685 5.10936,3.65139 0.81714,0.54243 1.95886,0.57752 2.75537,-0.0249 1.67477,-0.98604 3.13289,-2.28613 4.732615,-3.38268 0.648687,-0.47232 1.304592,-0.93512 1.976623,-1.37375 0.756161,0.54566 0.149334,1.5399 0.334464,2.29286 0.02575,1.56557 0.08297,3.138 -0.05795,4.69965 -0.0035,0.95839 -1.073631,1.50014 -1.929654,1.38782 -1.200879,-0.0881 -2.414028,-0.0205 -3.619748,-0.0394 -3.38866,0.009 -6.77873,0.0343 -10.1657,-0.0944 l -0.11127,-0.0225 -0.1094,-0.0302 z"
         style="opacity:1;fill:#f9f9fa;fill-opacity:1;stroke:none;stroke-width:0.35714287;stroke-linecap:round;stroke-linejoin:round;stroke-miterlimit:4;stroke-dasharray:0.35714286, 2.14285718;stroke-dashoffset:0;stroke-opacity:1;paint-order:stroke fill markers" />
    </g>
    <text
       xml:space="preserve"
       style="font-style:normal;font-variant:normal;font-weight:bold;font-stretch:normal;font-size:8.43952942px;line-height:1;font-family:'Delius Unicase';-inkscape-font-specification:'Delius Unicase Bold';text-align:center;letter-spacing:0px;word-spacing:0px;text-anchor:middle;fill:#000000;fill-opacity:1;stroke:none;stroke-width:0.08791176"
       x="106.83375"
       y="123.85375"
       id="text15724"><tspan
         sodipodi:role="line"
         id="tspan15722"
         x="106.83375"
         y="123.85375"
         style="stroke-width:0.08791176">CONTACT US</tspan></text>
  </g>
</svg>
