<?xml version="1.0" encoding="UTF-8" standalone="no"?>
<svg
   xmlns:dc="http://purl.org/dc/elements/1.1/"
   xmlns:cc="http://creativecommons.org/ns#"
   xmlns:rdf="http://www.w3.org/1999/02/22-rdf-syntax-ns#"
   xmlns:svg="http://www.w3.org/2000/svg"
   xmlns="http://www.w3.org/2000/svg"
   id="svg8"
   version="1.1"
   viewBox="0 0 210 297"
   height="297mm"
   width="210mm">
  <defs
     id="defs2" />
  <metadata
     id="metadata5">
    <rdf:RDF>
      <cc:Work
         rdf:about="">
        <dc:format>image/svg+xml</dc:format>
        <dc:type
           rdf:resource="http://purl.org/dc/dcmitype/StillImage" />
        <dc:title></dc:title>
      </cc:Work>
    </rdf:RDF>
  </metadata>
  <g
     id="layer1">
    <ellipse
       r="65.578873"
       cy="107.44494"
       cx="134.37053"
       id="path832"
       style="opacity:1;fill:none;fill-opacity:1;stroke:#003969;stroke-width:1;stroke-linecap:round;stroke-miterlimit:4;stroke-dasharray:0.1, 0.1;stroke-dashoffset:0;stroke-opacity:1;paint-order:stroke fill markers" />
    <circle
       style="opacity:1;fill:#99a2a8;fill-opacity:1;stroke:none;stroke-width:1.10708427;stroke-linecap:round;stroke-linejoin:round;stroke-miterlimit:4;stroke-dasharray:1.10708427, 6.64250566;stroke-dashoffset:0;stroke-opacity:1;paint-order:stroke fill markers"
       id="circle930"
       cx="186.4113"
       cy="46.680054"
       r="45.820438"
       transform="rotate(90)" />
    <path
       id="path932"
       style="opacity:1;fill:none;fill-opacity:1;stroke:#555f61;stroke-width:2.21416855;stroke-linecap:round;stroke-linejoin:round;stroke-miterlimit:4;stroke-dasharray:none;stroke-dashoffset:0;stroke-opacity:1;paint-order:stroke fill markers"
       d="m -128.18474,-93.336273 a 39.79306,39.79306 0 0 1 -19.89653,34.461801 39.79306,39.79306 0 0 1 -39.79306,0"
       transform="rotate(-105)" />
    <g
       id="g938"
       transform="matrix(1.7429445,0,0,1.7429445,149.53449,11.332986)">
      <rect
         style="opacity:1;fill:#0a1155;fill-opacity:1;stroke:none;stroke-width:0.82527292;stroke-linecap:round;stroke-miterlimit:4;stroke-dasharray:0.08252729, 0.08252729;stroke-dashoffset:0;stroke-opacity:1;paint-order:stroke fill markers"
         id="rect934"
         width="34.848057"
         height="34.848057"
         x="-188.17625"
         y="35.951557"
         transform="matrix(0.95910458,-0.28305194,0.95910458,0.28305194,0,0)"
         ry="5.0991845" />
      <path
         style="opacity:1;fill:none;fill-opacity:1;stroke:#e7aa11;stroke-width:2.97557044;stroke-linecap:round;stroke-linejoin:round;stroke-miterlimit:4;stroke-dasharray:0.29755707, 0.29755707;stroke-dashoffset:0;stroke-opacity:1;paint-order:stroke fill markers"
         d="m -129.95238,100.72693 0,-32.551302 18.09615,-5.340555"
         id="path936" />
    </g>
    <path
       style="opacity:1;fill:none;fill-opacity:1;stroke:#f9f9fa;stroke-width:2.21416855;stroke-linecap:round;stroke-linejoin:round;stroke-miterlimit:4;stroke-dasharray:none;stroke-dashoffset:0;stroke-opacity:1;paint-order:stroke fill markers"
       id="path964"
       d="m 114.10988,-203.95874 a 41.547211,41.547211 0 0 1 20.7736,35.98094"
       transform="rotate(165)" />
    <g
       style="fill:none;stroke:#f9f9fa;stroke-width:5;stroke-miterlimit:4;stroke-dasharray:none"
       transform="matrix(0.96245924,0.5556761,-0.5556761,0.96245924,103.28061,31.743511)"
       id="g979">
      <path
         transform="rotate(-30)"
         d="m -138.59271,143.72129 a 14.991625,14.991625 0 0 1 -6.98498,-16.86325 14.991625,14.991625 0 0 1 14.4808,-11.11151 14.991625,14.991625 0 0 1 14.48079,11.11151 14.991625,14.991625 0 0 1 -6.98498,16.86325"
         id="path970"
         style="opacity:1;fill:none;fill-opacity:1;stroke:#f9f9fa;stroke-width:5;stroke-linecap:round;stroke-miterlimit:4;stroke-dasharray:none;stroke-dashoffset:0;stroke-opacity:1;paint-order:stroke fill markers" />
      <path
         transform="rotate(150)"
         style="opacity:1;fill:none;fill-opacity:1;stroke:#f9f9fa;stroke-width:5;stroke-linecap:round;stroke-miterlimit:4;stroke-dasharray:none;stroke-dashoffset:0;stroke-opacity:1;paint-order:stroke fill markers"
         id="path972"
         d="m 138.5927,-143.72129 a 10.114558,10.114558 0 0 1 -4.4473,-12.21885 10.114558,10.114558 0 0 1 11.26095,-6.50151 10.114558,10.114558 0 0 1 8.35819,9.96089" />
      <path
         id="path974"
         d="m -35.181029,186.26682 -9.129663,-5.27101"
         style="fill:none;stroke:#f9f9fa;stroke-width:5;stroke-linecap:round;stroke-linejoin:miter;stroke-miterlimit:4;stroke-dasharray:none;stroke-dashoffset:0;stroke-opacity:1" />
      <path
         d="m -160.80501,110.10575 a 17.415146,17.415146 0 0 1 -2.33319,8.70757"
         id="path983"
         style="opacity:1;fill:none;fill-opacity:1;stroke:#f9f9fa;stroke-width:2.24951196;stroke-linecap:round;stroke-miterlimit:4;stroke-dasharray:none;stroke-dashoffset:0;stroke-opacity:1;paint-order:stroke fill markers"
         transform="rotate(-45)" />
    </g>
    <circle
       transform="rotate(30)"
       r="2.4095984"
       cy="184.07796"
       cx="53.139767"
       id="path981"
       style="opacity:1;fill:#f9f9fa;fill-opacity:1;stroke:none;stroke-width:5.54347801;stroke-linecap:butt;stroke-linejoin:round;stroke-miterlimit:4;stroke-dasharray:none;stroke-dashoffset:0;stroke-opacity:1;paint-order:stroke fill markers" />
  </g>
</svg>
